<?xml version="1.0" standalone="no"?><!DOCTYPE svg PUBLIC "-//W3C//DTD SVG 1.1//EN" "http://www.w3.org/Graphics/SVG/1.1/DTD/svg11.dtd"><svg t="1656852219068" class="icon" viewBox="0 0 1024 1024" version="1.1" xmlns="http://www.w3.org/2000/svg" p-id="1420" xmlns:xlink="http://www.w3.org/1999/xlink" width="16" height="16"><defs><style type="text/css"></style></defs><path d="M857.6 268.8c-59.733333-59.733333-132.266667-93.866667-204.8-110.933333L93.866667 42.666667c-12.8 0-29.866667 4.266667-38.4 12.8-8.533333 8.533333-12.8 25.6-12.8 38.4l110.933333 558.933333c17.066667 76.8 55.466667 149.333333 110.933333 204.8 85.333333 81.066667 192 123.733333 298.666667 123.733333s213.333333-42.666667 294.4-123.733333c76.8-76.8 123.733333-183.466667 123.733333-294.4s-42.666667-213.333333-123.733333-294.4zM384 187.733333c-42.666667 21.333333-81.066667 46.933333-115.2 81.066667C234.666667 302.933333 209.066667 341.333333 187.733333 384L140.8 140.8 384 187.733333z m413.866667 610.133334c-128 128-341.333333 128-469.333334 0-64-64-98.133333-145.066667-98.133333-234.666667s34.133333-170.666667 98.133333-234.666667c64-64 149.333333-98.133333 234.666667-98.133333s170.666667 34.133333 234.666667 98.133333c64 64 98.133333 145.066667 98.133333 234.666667s-34.133333 174.933333-98.133333 234.666667z" p-id="1421"></path></svg>